<?xml version="1.0" encoding="utf-8"?>
<!-- Generator: Adobe Illustrator 23.0.1, SVG Export Plug-In . SVG Version: 6.00 Build 0)  -->
<svg version="1.1" id="Layer_1" xmlns="http://www.w3.org/2000/svg" xmlns:xlink="http://www.w3.org/1999/xlink" x="0px" y="0px"
	 viewBox="0 0 512 512" style="enable-background:new 0 0 512 512;" xml:space="preserve">
<style type="text/css">
	.st0{fill:#010101;}
</style>
<g>
	<path class="st0" d="M494.9,359.7h-10.4v-10.4c0-40.2-32.7-72.9-72.9-72.9c-40.2,0-72.9,32.7-72.9,72.9v10.4h-10.4
		c-5.8,0-10.4,4.7-10.4,10.4v125c0,5.8,4.7,10.4,10.4,10.4h166.7c5.8,0,10.4-4.7,10.4-10.4v-125
		C505.3,364.4,500.7,359.7,494.9,359.7z M359.5,349.3c0-28.7,23.4-52.1,52.1-52.1c28.7,0,52.1,23.4,52.1,52.1v10.4H359.5V349.3z
		 M484.5,484.7H338.7V380.6h145.8V484.7z"/>
	<path class="st0" d="M411.6,401.4c-11.5,0-20.8,9.3-20.8,20.8c0,7.7,4.2,14.4,10.4,18v13.2c0,5.8,4.7,10.4,10.4,10.4
		c5.8,0,10.4-4.7,10.4-10.4v-13.2c6.2-3.6,10.4-10.3,10.4-18C432.4,410.7,423.1,401.4,411.6,401.4z"/>
	<path class="st0" d="M329.6,245.6c0,11.8-4,17.1-7.6,21.8c-0.9,1.2-1.7,2.2-2.3,3.2c-3.2,4.8-1.9,11.2,2.9,14.4
		c4.8,3.2,11.2,1.9,14.4-2.9l1.6-2.2c4.4-5.8,11.9-15.6,11.9-34.4c0-7.4,2.2-10.4,2.5-10.7c3.2-0.8,5.9-3.1,7.2-6.2
		c1.1-2.9,11.2-28.4,11.2-45.5c0-0.9-0.1-1.7-0.3-2.5c-1.1-4.6-4.3-11.2-10.1-15.2v-55.2c0-33.6-10.3-47.3-21-55.3
		C337.7,38.7,320.4,6,256.7,6c-64.5,0-104.2,60.7-104.2,104.2v55.2c-5.8,3.9-9,10.6-10.1,15.2c-0.2,0.8-0.3,1.7-0.3,2.5
		c0,17.1,10,42.7,11.2,45.5c1.2,3.1,3.1,5.2,6.3,6c1.2,0.6,3.3,3.6,3.3,11c0,19.8,14.9,41.8,30.8,56.4
		c-2.2,13.7-12.3,49.6-34.1,58.7l-92.5,30.8c-23.8,7.9-41.6,27.2-47.7,51.5L7,493.1c-1.4,5.6,2,11.2,7.6,12.6
		c0.8,0.2,1.7,0.3,2.5,0.3c4.7,0,8.9-3.2,10.1-7.9l12.5-50c4.3-17.4,17.1-31.1,34.1-36.8l93.2-31.1c36.1-15,48.1-69.3,48.1-82.5
		c0-3.1-1.4-6-3.8-8c-13.7-11.3-27.5-30-27.5-44c0-15.6-6.4-24.2-12.5-28.3c-3-8.2-7.8-23-8.3-32.7c0.3-0.8,0.5-1.5,0-1.5
		c5.8,0,10.4-4.7,10.4-10.4v-62.5c0-34,32.5-83.3,83.3-83.3c48.4,0,60.9,21.4,62.3,29.7c-0.4,1.4-0.6,2.8-0.5,4.1
		c0.6,5.7,4.9,8.4,7.4,10c4.2,2.7,14.1,8.9,14.1,39.6v62.5c0,5.8,3.4,10,9.2,10c0.3,0.3,0.8,1.1,1.2,2c-0.5,9.7-5.3,24.5-8.3,32.7
		C336,221.4,329.6,230,329.6,245.6z"/>
</g>
</svg>
